<svg width="114" height="24" viewBox="0 0 114 24" fill="none" xmlns="http://www.w3.org/2000/svg">
<path d="M51.3613 23.4893V0.169066H47.6912C47.6912 0.169066 45.4206 -0.0737048 43.6069 3.59641C41.422 8.03769 33.5391 23.4893 33.5391 23.4893H37.7376L47.1485 5.967V18.7053H41.4077L39.0942 23.5036H51.3613V23.4893ZM54.3032 0.169066V23.5036H68.8123V18.7053H58.5017V0.169066H54.3032ZM79.9655 0.169066V23.5036H76.2954C76.2954 23.5036 74.0248 23.7464 72.2111 20.0763C70.0262 15.6207 62.1575 0.169066 62.1575 0.169066H66.356L75.767 17.6914V0.169066H79.9655ZM83.1644 0.169066H87.3629V23.5036H83.1644V0.169066ZM90.319 11.8221C90.319 5.38149 95.5457 0.154785 101.986 0.154785C106.927 0.154785 111.326 3.26796 112.982 7.92344H108.613C106.456 4.2676 101.744 3.03947 98.0877 5.19584C94.4319 7.35222 93.2037 12.0648 95.3601 15.7207C97.5165 19.3765 102.229 20.6046 105.885 18.4483C107.556 17.4629 108.798 15.8777 109.355 14.007H113.454C112.24 20.3333 106.128 24.489 99.8014 23.2751C94.3033 22.2183 90.319 17.4201 90.319 11.8221Z" fill="black"/>
<path d="M16.4592 0.169434H31.4396V23.504H21.7859V18.8199C25.6274 18.4058 28.3978 14.9642 27.998 11.137C27.5981 7.30974 24.1422 4.52502 20.315 4.92488C16.4735 5.33902 13.703 8.78065 14.1029 12.6079C14.4456 15.7639 16.859 18.2915 19.9865 18.7771V23.504H0.350586L16.4592 0.169434Z" fill="black"/>
</svg>
